<?xml version="1.0" encoding="UTF-8" standalone="no"?>
<svg
   xmlns:dc="http://purl.org/dc/elements/1.1/"
   xmlns:cc="http://creativecommons.org/ns#"
   xmlns:rdf="http://www.w3.org/1999/02/22-rdf-syntax-ns#"
   xmlns:svg="http://www.w3.org/2000/svg"
   xmlns="http://www.w3.org/2000/svg"
   xml:space="preserve"
   width="489.49249"
   height="133.99034"
   style="clip-rule:evenodd;fill-rule:evenodd;image-rendering:optimizeQuality;shape-rendering:geometricPrecision;text-rendering:geometricPrecision"
   viewBox="0 0 5.0988798 1.3957435"
   version="1.1"
   id="svg53"><metadata
   id="metadata57"><rdf:RDF><cc:Work
       rdf:about=""><dc:format>image/svg+xml</dc:format><dc:type
         rdf:resource="http://purl.org/dc/dcmitype/StillImage" /><dc:title></dc:title></cc:Work></rdf:RDF></metadata>
 <defs
   id="defs7">
  <style
   type="text/css"
   id="style2">
   <![CDATA[
    .fil4 {fill:none}
    .fil5 {fill:#FEFEFE}
    .fil3 {fill:#003C66}
    .fil2 {fill:#013357}
    .fil6 {fill:white}
    .fil0 {fill:#013357;fill-rule:nonzero}
    .fil1 {fill:#333333;fill-rule:nonzero}
    .fil7 {fill:#A10000;fill-rule:nonzero}
   ]]>
  </style>
    <clipPath
   id="id0">
     <path
   d="m 0.645788,0.098882 c -0.302048,0 -0.546906,0.244859 -0.546906,0.546906 0,0.302048 0.244859,0.546906 0.546906,0.546906 0.302048,0 0.546906,-0.244859 0.546906,-0.546906 0,-0.302048 -0.244859,-0.546906 -0.546906,-0.546906 z"
   id="path4" />
    </clipPath>
 
  
  
 
   
   
   
   
   
   
   
   
   
   
   
   
   
   
   
   
   
   
  </defs>
 <circle
   r="0.61889869"
   cy="0.69591236"
   cx="0.69981176"
   id="path832"
   style="opacity:1;fill:#ffffff;fill-opacity:1;fill-rule:evenodd;stroke:none;stroke-width:0.0393704;stroke-linecap:square;stroke-miterlimit:4;stroke-dasharray:none;stroke-dashoffset:0;stroke-opacity:1" /><g
   id="g856"><g
     transform="translate(0.05206399,0.05208374)"
     id="g3855"><path
       id="_214580120"
       class="fil2"
       d="M 0.645788,0 C 0.28913,0 0,0.28913 0,0.645788 c 0,0.356658 0.28913,0.645788 0.645788,0.645788 0.356658,0 0.645788,-0.28913 0.645788,-0.645788 C 1.291576,0.28913 1.002446,0 0.645788,0 Z m 0,0.033189 c -0.338327,0 -0.612595,0.274272 -0.612595,0.612599 0,0.338327 0.274268,0.612599 0.612595,0.612599 0.338327,0 0.612599,-0.274272 0.612599,-0.612599 0,-0.338327 -0.274272,-0.612599 -0.612599,-0.612599 z"
       style="fill:#013357" /><path
       id="_214579952"
       class="fil2"
       d="m 0.645788,0.098882 c -0.302048,0 -0.546906,0.244859 -0.546906,0.546906 0,0.302048 0.244859,0.546906 0.546906,0.546906 0.302048,0 0.546906,-0.244859 0.546906,-0.546906 0,-0.302048 -0.244859,-0.546906 -0.546906,-0.546906 z"
       style="fill:#013357" /><path
       id="_214579784"
       class="fil5"
       d="M 0.410859,0.731847 0.3767802,0.835642 0.6209222,0.837059 0.5883198,0.7392282 C 0.5739773,0.7733148 0.5402646,0.7972519 0.5009614,0.7972519 c -0.0420788,0 -0.0777481,-0.027441 -0.0901024,-0.0654049 z"
       style="fill:#fefefe" /><polygon
       id="_214579616"
       class="fil5"
       points="0.970162,0.775465 1.01064,0.775465 1.02898,0.706461 0.951965,0.706461 "
       style="fill:#fefefe" /><polygon
       id="_214579448"
       class="fil5"
       points="0.990525,0.875379 0.99993,0.786115 0.981021,0.786115 "
       style="fill:#fefefe" /><path
       id="_214579280"
       class="fil5"
       d="M 0.92795,0.569241 0.774623,0.4702881 C 0.8104931,0.4585086 0.8363868,0.4247605 0.8363868,0.3849534 c 0,-0.00852 -0.001181,-0.0167677 -0.003402,-0.0245788 l 0.151689,0.123937 c -0.0334646,0.003008 -0.059693,0.0311221 -0.059693,0.0653662 0,0.006815 0.001039,0.0133819 0.002969,0.0195632 z"
       style="fill:#fefefe" /><path
       id="_214579112"
       class="fil5"
       d="M 0.744863,0.474741 0.595631,0.705985 c 4.331e-5,-0.00115 7.087e-5,-0.002311 7.087e-5,-0.003472 0,-0.0523189 -0.0424174,-0.0947363 -0.0947402,-0.0947363 -0.0125433,0 -0.0245158,0.002445 -0.0354725,0.00687 l 0.191398,-0.234252 c -7.481e-5,0.001512 -1.1024e-4,0.003032 -1.1024e-4,0.004559 0,0.0490237 0.0392796,0.0888741 0.0880861,0.0897873 z"
       style="fill:#fefefe" /><path
       id="_214578944"
       class="fil5"
       d="m 0.500957,0.625284 c -0.0426536,0 -0.0772284,0.0345748 -0.0772284,0.0772324 0,0.0426536 0.0345748,0.0772324 0.0772284,0.0772324 0.0426575,0 0.0772324,-0.0345788 0.0772324,-0.0772324 0,-0.0426575 -0.0345748,-0.0772324 -0.0772324,-0.0772324 z m 0,0.0380867 c 0.0216181,0 0.0391457,0.0175276 0.0391457,0.0391457 0,0.0216181 -0.0175276,0.0391457 -0.0391457,0.0391457 -0.0216181,0 -0.0391457,-0.0175276 -0.0391457,-0.0391457 0,-0.0216181 0.0175276,-0.0391457 0.0391457,-0.0391457 z"
       style="fill:#fefefe" /><path
       id="_214578776"
       class="fil5"
       d="m 0.643284,0.848461 h -0.28741 c -0.005839,0 -0.0106102,0.004772 -0.0106102,0.0106102 v 0.0276181 h 0.30717 V 0.8576105 c 0,-0.005039 -0.004114,-0.00915 -0.00915,-0.00915 z"
       style="fill:#fefefe" /><path
       id="_214578608"
       class="fil5"
       d="M 0.669363,0.900304 H 0.330437 c -0.0139016,0 -0.0252717,0.0113701 -0.0252717,0.0252717 v 0.0434174 h 0.387363 V 0.9234694 C 0.6925283,0.9107292 0.682107,0.900304 0.669363,0.900304 Z"
       style="fill:#fefefe" /><path
       id="_214578440"
       class="fil5"
       d="m 1.04149,0.549682 c 0,-0.0281024 -0.022776,-0.050878 -0.050878,-0.050878 -0.0280945,0 -0.0508701,0.0227756 -0.0508701,0.050878 0,0.0280945 0.0227756,0.0508741 0.0508701,0.0508741 0.0281024,0 0.050878,-0.0227795 0.050878,-0.0508741 z M 0.9906159,0.5215639 c 0.0155236,0 0.0281142,0.0125906 0.0281142,0.0281142 0,0.0155236 -0.012591,0.0281142 -0.0281142,0.0281142 -0.0155236,0 -0.0281142,-0.0125906 -0.0281142,-0.0281142 0,-0.0155236 0.0125906,-0.0281142 0.0281142,-0.0281142 z"
       style="fill:#fefefe" /><path
       id="_214578272"
       class="fil6"
       d="m 1.0468,0.581138 v 0.0936812 c 0,0.0110433 -0.00903,0.0200748 -0.020071,0.0200748 H 0.9553747 c -0.0110433,0 -0.0200748,-0.009031 -0.0200748,-0.0200748 V 0.582886 c 0.0103662,0.0199843 0.0312481,0.0336378 0.055315,0.0336378 0.0247638,0 0.0461536,-0.0144567 0.0561851,-0.0353858 z"
       style="fill:#ffffff" /><path
       id="_214578104"
       class="fil5"
       d="m 0.820107,0.384957 c 0,-0.0406142 -0.0329134,-0.0735316 -0.0735276,-0.0735316 -0.0406142,0 -0.0735316,0.0329174 -0.0735316,0.0735316 0,0.0406103 0.0329174,0.0735316 0.0735316,0.0735316 0.0406142,0 0.0735276,-0.0329213 0.0735276,-0.0735316 z M 0.7465754,0.3470436 c 0.020937,0 0.0379134,0.0169764 0.0379134,0.0379134 0,0.020937 -0.0169764,0.0379134 -0.0379134,0.0379134 -0.020937,0 -0.0379134,-0.0169764 -0.0379134,-0.0379134 0,-0.020937 0.0169764,-0.0379134 0.0379134,-0.0379134 z"
       style="fill:#fefefe" /></g></g><path
   id="_214580408"
   class="fil0"
   d="M 2.2759082,0.98020169 H 2.1136788 L 1.9645789,0.75614312 H 1.8097342 V 0.98020169 H 1.6734959 V 0.40569207 h 0.4202095 c 0.047606,0 0.086999,0.018466 0.1181853,0.055398 0.031186,0.036937 0.046783,0.0805675 0.046783,0.13090603 0,0.0399433 -0.013407,0.073869 -0.040216,0.10177238 -0.026814,0.0279032 -0.060735,0.0454109 -0.1017723,0.0525279 L 2.2759094,0.9802008 Z M 2.092888,0.58625238 c 0,-0.0268087 -0.00999,-0.0474639 -0.029961,-0.0619653 C 2.042957,0.50979068 2.016013,0.50253748 1.982088,0.50253748 H 1.8097342 v 0.16086234 h 0.176458 c 0.025714,0 0.048695,-0.005745 0.068941,-0.0172353 0.02517,-0.0142241 0.037755,-0.0341931 0.037755,-0.0599121 z m 0.6861225,0.17974165 c 0,0.073864 -0.023525,0.13049222 -0.070581,0.16988561 -0.043227,0.0361149 -0.1020451,0.0541723 -0.176458,0.0541723 -0.074414,0 -0.1321372,-0.0164182 -0.1731692,-0.0492443 -0.047606,-0.0377541 -0.071407,-0.096572 -0.071407,-0.17645801 0,-0.066752 0.02572,-0.11928007 0.077152,-0.1575787 0.045961,-0.0344705 0.1025897,-0.0517058 0.1698856,-0.0517058 0.07387,0 0.1330956,0.018466 0.1776893,0.055398 0.044594,0.036932 0.066889,0.088779 0.066887,0.15553088 z M 2.6517968,0.76517187 c 0,-0.0344705 -0.0108,-0.0633322 -0.032417,-0.0865849 -0.021613,-0.0232578 -0.05102,-0.0348842 -0.088229,-0.0348842 -0.03392,0 -0.06196,0.0119033 -0.084124,0.0357013 -0.022158,0.0238026 -0.03324,0.0537588 -0.03324,0.0898737 0,0.0415825 0.011223,0.0746811 0.033654,0.0993059 0.022431,0.0246197 0.051429,0.036932 0.086994,0.036932 0.040493,0 0.070586,-0.012857 0.090283,-0.0385764 0.018058,-0.0235251 0.027081,-0.057451 0.027081,-0.10176737 z m 0.6344261,-0.00164 c 0,0.0574458 -0.015324,0.10696764 -0.045961,0.1485503 -0.033376,0.0454109 -0.076331,0.0681189 -0.1288536,0.0681189 H 2.844673 V 0.40569152 h 0.1149017 v 0.14937281 h 0.1534725 c 0.050884,0 0.093015,0.0216135 0.1263925,0.0648404 0.031186,0.040488 0.046783,0.0883604 0.046783,0.14362714 z m -0.1198252,0.004101 c 0,-0.0322815 -0.00958,-0.0608708 -0.028725,-0.0857677 -0.019152,-0.0248921 -0.0435,-0.0373406 -0.073047,-0.0373406 h -0.105051 v 0.24375528 h 0.1107955 c 0.028453,0 0.05157,-0.0121762 0.06935,-0.0365235 0.017785,-0.0243473 0.026678,-0.0523868 0.026677,-0.0841235 z m 0.6606811,-0.00164 c 0,0.073864 -0.023525,0.13049222 -0.070581,0.16988562 -0.043227,0.0361149 -0.1020452,0.0541723 -0.1764581,0.0541723 -0.074414,0 -0.1321372,-0.0164182 -0.1731692,-0.0492443 -0.047606,-0.0377541 -0.071407,-0.096572 -0.071407,-0.17645801 0,-0.066752 0.02572,-0.11928006 0.077152,-0.1575787 0.045961,-0.0344705 0.1025896,-0.0517058 0.1698856,-0.0517058 0.07387,0 0.1330955,0.018466 0.1776892,0.055398 0.044594,0.036932 0.066889,0.088779 0.066887,0.15553087 z M 3.6998651,0.76517092 c 0,-0.0344705 -0.0108,-0.0633322 -0.032417,-0.0865849 -0.021613,-0.0232578 -0.05102,-0.0348842 -0.088229,-0.0348842 -0.03392,0 -0.06196,0.0119033 -0.084124,0.0357013 -0.022158,0.0238026 -0.03324,0.0537588 -0.03324,0.0898736 0,0.0415825 0.011223,0.0746811 0.033654,0.0993059 0.022431,0.0246197 0.051429,0.036932 0.086994,0.036932 0.040493,0 0.070585,-0.012857 0.090283,-0.0385764 0.018058,-0.0235251 0.027081,-0.057451 0.027081,-0.10176737 z"
   style="fill:#013357;fill-rule:nonzero;stroke-width:1.2811693" /><path
   id="_214578008"
   class="fil7"
   d="m 4.2967605,0.4260396 c 0.046158,0.0175884 0.082696,0.0535771 0.1096207,0.10797644 0.02473,0.050006 0.037094,0.10660443 0.037094,0.16979593 0,0.0675842 -0.013739,0.12638197 -0.041214,0.17638242 -0.029673,0.0549491 -0.07061,0.0876442 -0.1228103,0.0980852 -0.020332,0.003849 -0.043136,0.00577 -0.068412,0.00577 h -0.31074 V 0.40708432 h 0.2934287 c 0.034622,0 0.068962,0.00632 0.1030329,0.0189553 z m 0.014835,0.28024297 c 0,-0.0532997 -0.00797,-0.0969857 -0.023903,-0.13105209 -0.020332,-0.0428637 -0.051101,-0.0642906 -0.092315,-0.0642906 H 4.0346512 v 0.373375 L 4.206096,0.8851421 c 0.037365,0 0.065113,-0.0195102 0.083245,-0.0585202 C 4.304176,0.794749 4.311595,0.7546393 4.3115955,0.70628257 Z M 5.046816,0.40708342 4.7904809,0.69144279 5.0385742,0.98404905 H 4.859715 L 4.6404685,0.69062028 4.8679568,0.40708342 Z M 4.636347,0.98404905 H 4.5085881 V 0.40708342 h 0.1277594 z"
   style="fill:#a10000;fill-rule:nonzero;stroke-width:1.2811693" />
</svg>